HIERARCHY
ROOT Hips
{
	OFFSET 0.00000 0.00000 0.00000
	CHANNELS 6 Xposition Yposition Zposition Zrotation Yrotation Xrotation 
	JOINT LHipJoint
	{
		OFFSET 0 0 0
		CHANNELS 3 Zrotation Yrotation Xrotation
		JOINT LeftUpLeg
		{
			OFFSET 1.26600 -1.82114 0.91038
			CHANNELS 3 Zrotation Yrotation Xrotation
			JOINT LeftLeg
			{
				OFFSET 2.50076 -6.87080 0.00000
				CHANNELS 3 Zrotation Yrotation Xrotation
				JOINT LeftFoot
				{
					OFFSET 2.57364 -7.07102 0.00000
					CHANNELS 3 Zrotation Yrotation Xrotation
					JOINT LeftToeBase
					{
						OFFSET 0.13572 -0.37290 1.97004
						CHANNELS 3 Zrotation Yrotation Xrotation
						End Site
						{
							OFFSET 0.00000 -0.00000 1.01383
						}
					}
				}
			}
		}
	}
	JOINT RHipJoint
	{
		OFFSET 0 0 0
		CHANNELS 3 Zrotation Yrotation Xrotation
		JOINT RightUpLeg
		{
			OFFSET -1.20803 -1.82114 0.91038
			CHANNELS 3 Zrotation Yrotation Xrotation
			JOINT RightLeg
			{
				OFFSET -2.54916 -7.00377 0.00000
				CHANNELS 3 Zrotation Yrotation Xrotation
				JOINT RightFoot
				{
					OFFSET -2.56374 -7.04382 0.00000
					CHANNELS 3 Zrotation Yrotation Xrotation
					JOINT RightToeBase
					{
						OFFSET -0.23520 -0.64621 2.09921
						CHANNELS 3 Zrotation Yrotation Xrotation
						End Site
						{
							OFFSET -0.00000 -0.00000 1.10065
						}
					}
				}
			}
		}
	}
	JOINT LowerBack
	{
		OFFSET 0 0 0
		CHANNELS 3 Zrotation Yrotation Xrotation
		JOINT Spine
		{
			OFFSET 0.05492 2.10797 -0.12074
			CHANNELS 3 Zrotation Yrotation Xrotation
			JOINT Spine1
			{
				OFFSET 0.04577 2.11592 -0.04483
				CHANNELS 3 Zrotation Yrotation Xrotation
				JOINT Neck
				{
					OFFSET 0 0 0
					CHANNELS 3 Zrotation Yrotation Xrotation
					JOINT Neck1
					{
						OFFSET -0.10759 1.80167 0.15770
						CHANNELS 3 Zrotation Yrotation Xrotation
						JOINT Head
						{
							OFFSET 0.09237 1.77509 -0.40848
							CHANNELS 3 Zrotation Yrotation Xrotation
							End Site
							{
								OFFSET 0.03805 1.84093 -0.15754
							}
						}
					}
				}
				JOINT LeftShoulder
				{
					OFFSET 0 0 0
					CHANNELS 3 Zrotation Yrotation Xrotation
					JOINT LeftArm
					{
						OFFSET 3.42372 1.09575 -0.28209
						CHANNELS 3 Zrotation Yrotation Xrotation
						JOINT LeftForeArm
						{
							OFFSET 4.95681 -0.00000 0.00000
							CHANNELS 3 Zrotation Yrotation Xrotation
							JOINT LeftHand
							{
								OFFSET 3.40915 -0.00000 0.00000
								CHANNELS 3 Zrotation Yrotation Xrotation
								JOINT LeftFingerBase
								{
									OFFSET 0 0 0
									CHANNELS 3 Zrotation Yrotation Xrotation
									JOINT LeftHandIndex1
									{
										OFFSET 0.61640 -0.00000 0.00000
										CHANNELS 3 Zrotation Yrotation Xrotation
										End Site
										{
											OFFSET 0.49696 -0.00000 0.00000
										}
									}
								}
								JOINT LThumb
								{
									OFFSET 0 0 0
									CHANNELS 3 Zrotation Yrotation Xrotation
									End Site
									{
										OFFSET 0.50455 -0.00000 0.50455
									}
								}
							}
						}
					}
				}
				JOINT RightShoulder
				{
					OFFSET 0 0 0
					CHANNELS 3 Zrotation Yrotation Xrotation
					JOINT RightArm
					{
						OFFSET -3.24731 1.15872 -0.32221
						CHANNELS 3 Zrotation Yrotation Xrotation
						JOINT RightForeArm
						{
							OFFSET -5.35200 -0.00000 0.00000
							CHANNELS 3 Zrotation Yrotation Xrotation
							JOINT RightHand
							{
								OFFSET -3.43721 -0.00000 -0.00000
								CHANNELS 3 Zrotation Yrotation Xrotation
								JOINT RightFingerBase
								{
									OFFSET 0 0 0
									CHANNELS 3 Zrotation Yrotation Xrotation
									JOINT RightHandIndex1
									{
										OFFSET -0.72009 -0.00000 0.00000
										CHANNELS 3 Zrotation Yrotation Xrotation
										End Site
										{
											OFFSET -0.58056 -0.00000 0.00000
										}
									}
								}
								JOINT RThumb
								{
									OFFSET 0 0 0
									CHANNELS 3 Zrotation Yrotation Xrotation
									End Site
									{
										OFFSET -0.58942 -0.00000 0.58942
									}
								}
							}
						}
					}
				}
			}
		}
	}
}
MOTION
Frames: 14
Frame Time: .0083333
-2.1307 17.2283 -11.2651 0 0 0 0 0 0 -21 0 0 0 0 0 0 0 0 0 0 0 0 0 0 21 0 0 0 0 0 0 0 0 0 0 0 0 0 0 0 0 0 0 0 0 0 0 -16 0 0 21 0 0 11 0 0 0 -8 0 0 0 0 0 0 0 0 0 0 0 0 0 0 0 0 0 0 0 0 8 0 0 0 0 0 0 0 0 0 0 0 0 0 0 0 0 0
-2.1307 17.2283 -11.2651 -10.7969 65.6716 -7.0201 0.0000 0.0000 0.0000 -15.4275 0.3374 -7.9478 2.7396 10.2611 29.8264 1.3906 -5.4720 -21.1704 0.0342 1.1930 3.2801 0.0000 0.0000 0.0000 26.2568 1.3755 -10.5761 -3.2496 -11.0886 32.5792 -1.3695 11.3643 -21.2275 -0.6451 -5.1383 14.3034 -0.8006 -4.8046 2.2468 4.9269 -6.2970 -1.2325 5.7561 -3.0940 -1.8827 -14.1100 -8.0545 -5.9458 2.8812 -9.3493 32.5019 2.3463 -5.3147 12.6937 0.0000 -0.0000 0.0000 -91.2916 9.6119 20.4074 19.9708 -30.6072 -5.5165 -0.0000 0.0000 -10.5781 20.0866 22.5678 7.9887 -7.1250 0.0000 -0.0000 -9.3057 53.6108 -1.9838 0.0000 -0.0000 0.0000 84.6498 -1.8209 11.9759 -12.7222 20.8788 -2.3534 0.0000 -0.0000 -4.5703 -19.9561 10.7467 -3.8734 7.1250 -0.0000 -0.0000 5.0187 -18.5889 3.1692
-2.1359 17.2203 -11.2629 -10.9166 65.8769 -7.1323 0.0000 0.0000 0.0000 -15.3665 0.2444 -7.9290 2.7278 10.2408 29.7600 1.3754 -5.5692 -21.0421 0.0273 1.0669 2.9328 0.0000 0.0000 0.0000 26.3304 1.4605 -10.6510 -3.2939 -11.1563 32.8089 -1.4305 10.9727 -21.6149 -0.5492 -4.7476 13.1901 -0.5529 -4.6133 2.1587 4.8491 -6.0391 -1.1061 5.5154 -2.9713 -1.7634 -13.4156 -7.3575 -6.6701 2.7545 -8.2788 33.4171 2.3254 -4.7637 13.0649 0.0000 0.0000 0.0000 -91.0896 9.1668 19.8948 19.5278 -30.0692 -5.2927 -0.0000 0.0000 -9.5306 20.5346 22.3755 8.1151 -7.1250 0.0000 -0.0000 -8.7775 53.4977 -1.8454 0.0000 0.0000 0.0000 84.8514 -1.8934 11.8077 -12.8461 21.0613 -2.3977 0.0000 -0.0000 -4.6034 -20.5799 10.7486 -4.0057 7.1250 -0.0000 -0.0000 4.5783 -18.5382 2.8944
-2.1435 17.2206 -11.2576 -10.9166 66.1504 -7.1652 0.0000 0.0000 0.0000 -15.3389 0.3158 -7.9830 2.7201 10.2275 29.7167 1.3510 -5.8979 -20.8260 0.0178 0.8623 2.3700 0.0000 0.0000 0.0000 26.3717 1.1504 -10.8377 -3.3353 -11.2190 33.0221 -1.4965 10.2600 -22.0103 -0.2973 -3.5062 9.6914 -0.3928 -4.4025 2.1482 4.7576 -5.7568 -1.0090 5.3185 -2.8337 -1.7100 -12.8161 -6.6473 -7.0199 2.7834 -7.2719 34.0945 2.3869 -4.2345 13.2892 0.0000 -0.0000 0.0000 -90.8481 8.7153 19.3601 19.0254 -29.4502 -5.0433 -0.0000 0.0000 -8.1248 19.7299 22.4761 7.8070 -7.1250 0.0000 -0.0000 -9.6312 53.4506 -2.0163 0.0000 -0.0000 0.0000 85.0362 -1.9082 11.4293 -12.9063 21.1497 -2.4194 0.0000 -0.0000 -4.7623 -20.8963 10.8377 -4.1060 7.1250 -0.0000 -0.0000 4.3571 -18.4184 2.7653
-2.1525 17.2264 -11.2477 -10.9593 66.4078 -7.3736 0.0000 0.0000 0.0000 -15.2969 0.4040 -7.9097 2.7148 10.2184 29.6870 1.3251 -6.0232 -20.6115 0.0159 0.8149 2.2398 0.0000 0.0000 0.0000 26.4251 0.8437 -10.8479 -3.3710 -11.2727 33.2051 -1.5297 9.9991 -22.2250 -0.2140 -2.9780 8.2176 -0.3583 -4.2244 2.2638 4.7479 -5.5189 -0.8763 5.2866 -2.7167 -1.6643 -12.3146 -5.9563 -7.2879 2.6566 -6.2313 34.6687 2.4094 -3.7215 13.4605 0.0000 0.0000 0.0000 -90.6259 8.5076 19.3416 18.7774 -29.1412 -4.9220 -0.0000 0.0000 -7.6331 19.3364 22.5707 7.6708 -7.1250 0.0000 -0.0000 -10.0659 53.4738 -2.1144 0.0000 0.0000 0.0000 85.0129 -1.9259 11.3753 -13.0236 21.3217 -2.4618 0.0000 -0.0000 -5.3635 -20.6993 10.8868 -4.0820 7.1250 -0.0000 -0.0000 4.4971 -18.3822 2.8583
-2.1549 17.2234 -11.2363 -10.8885 66.7450 -7.5137 0.0000 0.0000 0.0000 -15.3204 0.3336 -7.7431 2.7159 10.2203 29.6930 1.2947 -6.3572 -20.3520 0.0736 1.7497 4.8143 0.0000 0.0000 0.0000 26.3542 0.4079 -10.8246 -3.4029 -11.3204 33.3681 -1.5565 10.1351 -22.4263 -0.1977 -2.8635 7.8989 -0.4828 -4.1523 2.2016 4.8071 -5.4369 -0.5733 5.3941 -2.6838 -1.3073 -11.9571 -5.3416 -7.8976 2.5462 -5.2439 35.1904 2.4463 -3.2508 13.7077 0.0000 -0.0000 0.0000 -90.6051 8.2371 19.0634 18.7143 -29.0621 -4.8913 -0.0000 0.0000 -7.4166 18.2285 22.1656 7.0829 -7.1250 0.0000 -0.0000 -11.0164 52.8611 -2.1517 0.0000 -0.0000 0.0000 84.7472 -1.5106 11.8079 -13.0800 21.4043 -2.4824 0.0000 -0.0000 -6.0068 -20.8021 10.6614 -4.0204 7.1250 -0.0000 -0.0000 4.4194 -18.6130 2.7860
-2.1589 17.2207 -11.2254 -10.2896 67.1396 -7.1459 0.0000 0.0000 0.0000 -15.5507 0.3241 -7.6484 2.7277 10.2406 29.7596 1.2588 -6.9763 -20.0489 0.1771 2.7106 7.4739 0.0000 0.0000 0.0000 26.0664 0.1218 -10.7784 -3.4227 -11.3497 33.4685 -1.5997 9.8892 -22.7119 -0.1493 -2.4896 6.8609 -0.8667 -4.0587 2.0952 4.8375 -5.3385 -0.1959 5.6105 -2.6461 -0.8301 -11.5029 -4.8392 -8.6768 2.2057 -4.3473 35.6653 2.3588 -2.8389 13.9824 -0.0000 -0.0000 0.0000 -90.7247 7.7831 18.6966 18.6345 -28.9620 -4.8526 -0.0000 0.0000 -7.5308 18.5765 21.9915 7.1731 -7.1250 0.0000 -0.0000 -10.6005 52.7475 -2.0394 -0.0000 -0.0000 0.0000 84.6093 -0.9217 11.6259 -13.1400 21.4920 -2.5043 0.0000 -0.0000 -6.0605 -20.9326 10.4149 -3.9556 7.1250 -0.0000 -0.0000 4.3215 -18.8644 2.6998
-2.1735 17.2148 -11.2198 -9.5151 67.4311 -6.6304 0.0000 0.0000 0.0000 -15.9008 0.0907 -7.5335 2.7606 10.2970 29.9441 1.2536 -6.8394 -20.0080 0.1392 2.4047 6.6254 0.0000 0.0000 0.0000 25.7988 0.0826 -10.6196 -3.4285 -11.3584 33.4983 -1.6625 9.1561 -23.1127 -0.0628 -1.6172 4.4488 -1.1431 -3.8264 2.3079 4.7468 -5.0424 0.0524 5.6719 -2.5031 -0.7080 -10.9139 -4.4095 -9.2886 1.7626 -3.5631 36.2250 2.1958 -2.4736 14.2767 0.0000 -0.0000 0.0000 -90.5847 7.4389 18.9375 18.5171 -28.8143 -4.7959 -0.0000 0.0000 -8.0043 20.4067 22.2636 8.0230 -7.1250 0.0000 -0.0000 -8.8652 53.3590 -1.8339 0.0000 -0.0000 0.0000 84.7293 -0.5774 10.8277 -13.1723 21.5391 -2.5162 0.0000 -0.0000 -5.8821 -20.7010 10.4794 -3.9318 7.1250 -0.0000 -0.0000 4.4869 -18.8139 2.8088
-2.1863 17.2130 -11.2155 -9.7956 67.6645 -7.0908 0.0000 0.0000 0.0000 -15.8169 -0.1989 -7.4431 2.8131 10.3862 30.2365 1.2586 -6.5384 -20.0541 0.0682 1.6844 4.6342 0.0000 0.0000 0.0000 25.9411 0.0374 -10.4372 -3.4185 -11.3435 33.4474 -1.6485 9.0229 -23.0094 -0.0788 -1.8107 4.9829 -0.8485 -3.6222 2.5906 4.6562 -4.7617 0.2564 5.4191 -2.3642 -0.7179 -10.3972 -3.9472 -9.6667 1.6803 -2.8784 36.6535 2.1820 -2.1155 14.4835 -0.0000 0.0000 0.0000 -90.1534 7.2653 19.2694 18.4501 -28.7296 -4.7636 -0.0000 0.0000 -8.1794 20.8203 22.1805 8.1697 -7.1250 0.0000 -0.0000 -8.4151 53.3505 -1.7380 -0.0000 0.0000 0.0000 84.8814 -0.3845 10.5438 -13.2501 21.6526 -2.5448 0.0000 -0.0000 -6.1513 -20.6716 10.4083 -3.8995 7.1250 -0.0000 -0.0000 4.5062 -18.8916 2.8132
-2.1947 17.2058 -11.2090 -10.8209 67.8606 -8.1791 0.0000 0.0000 0.0000 -15.3602 -0.1662 -7.5822 2.8854 10.5073 30.6355 1.2494 -6.8099 -19.9745 0.0546 1.5080 4.1478 0.0000 0.0000 0.0000 26.3463 -0.1668 -10.2627 -3.3952 -11.3089 33.3289 -1.6141 9.2850 -22.7780 -0.1693 -2.6510 7.3086 -0.3308 -3.5158 2.7028 4.7361 -4.6025 0.4834 5.2065 -2.2867 -0.5974 -10.2107 -3.3895 -9.8563 1.8239 -2.0888 36.8168 2.3339 -1.7261 14.5321 -0.0000 0.0000 0.0000 -89.9909 7.1184 18.9809 18.4131 -28.6829 -4.7458 -0.0000 0.0000 -7.7308 19.6190 21.6827 7.5026 -7.1250 0.0000 -0.0000 -9.4415 52.6204 -1.7835 -0.0000 0.0000 0.0000 84.7298 -0.2723 11.2662 -13.4678 21.9687 -2.6257 0.0000 -0.0000 -7.1396 -20.8637 10.2962 -3.8972 7.1250 -0.0000 -0.0000 4.3677 -18.9957 2.7161
-2.2026 17.1935 -11.2024 -11.6843 68.0471 -9.1472 0.0000 0.0000 0.0000 -15.0008 -0.2697 -7.6567 2.9641 10.6367 31.0642 1.2481 -6.8168 -19.9638 0.0457 1.3795 3.7936 0.0000 0.0000 0.0000 26.6479 -0.0889 -9.9064 -3.3733 -11.2762 33.2172 -1.5940 9.7369 -22.6616 -0.3866 -3.9926 11.0559 -0.0047 -3.4689 2.8478 4.8933 -4.5272 0.7387 5.1853 -2.2511 -0.4351 -10.0990 -2.8377 -10.1442 1.8476 -1.2305 37.0557 2.4610 -1.3362 14.6383 0.0000 -0.0000 0.0000 -90.1206 6.9302 18.4719 18.4508 -28.7306 -4.7640 -0.0000 0.0000 -7.7143 19.3565 21.7496 7.4168 -7.1250 0.0000 -0.0000 -9.7289 52.6415 -1.8436 0.0000 -0.0000 0.0000 84.3435 -0.2119 12.7048 -13.7168 22.3283 -2.7196 0.0000 -0.0000 -8.5389 -21.1599 10.5507 -4.0540 7.1250 -0.0000 -0.0000 4.1639 -18.7021 2.6158
-2.2098 17.1835 -11.1976 -11.9038 68.3128 -9.6293 0.0000 0.0000 0.0000 -14.9734 -0.5197 -7.5787 3.0476 10.7717 31.5139 1.2661 -6.4166 -20.1191 0.0116 0.6951 1.9102 0.0000 0.0000 0.0000 26.6496 -0.1480 -9.5468 -3.3563 -11.2507 33.1300 -1.5659 10.1178 -22.4911 -0.6408 -5.1212 14.2546 0.0947 -3.4525 3.1168 4.8639 -4.5026 1.0258 5.1051 -2.2419 -0.3021 -9.6189 -2.3376 -10.4456 1.7220 -0.4925 37.3143 2.4443 -0.9696 14.7612 -0.0000 -0.0000 0.0000 -90.1228 6.7395 18.0403 18.5393 -28.8422 -4.8066 -0.0000 0.0000 -8.3923 20.5581 22.3457 8.1150 -7.1250 0.0000 -0.0000 -8.7425 53.4715 -1.8324 -0.0000 -0.0000 0.0000 84.2665 -0.0089 13.6232 -13.8414 22.5076 -2.7671 0.0000 -0.0000 -9.0384 -21.4612 10.6690 -4.1628 7.1250 -0.0000 -0.0000 3.9540 -18.5517 2.4965
-2.2173 17.1799 -11.1931 -11.5852 68.7030 -9.5139 0.0000 0.0000 0.0000 -15.1733 -0.5712 -7.7191 3.1325 10.9065 31.9652 1.2743 -6.2186 -20.1929 0.0015 -0.2508 -0.6890 0.0000 0.0000 0.0000 26.4715 -0.7375 -9.5662 -3.3416 -11.2286 33.0546 -1.5909 9.6565 -22.6343 -0.4701 -4.3975 12.1978 0.0934 -3.3717 3.2695 4.6774 -4.4013 1.2659 4.9095 -2.1946 -0.1642 -9.0778 -1.9322 -10.4967 1.7273 -0.0024 37.3738 2.4290 -0.6784 14.7511 0.0000 -0.0000 0.0000 -90.0057 6.6114 17.9704 18.6911 -29.0331 -4.8800 -0.0000 0.0000 -9.3931 22.3969 22.9363 9.1239 -7.1250 0.0000 -0.0000 -7.0768 54.4340 -1.6467 0.0000 -0.0000 0.0000 84.4954 0.3172 13.5205 -13.8819 22.5656 -2.7826 0.0000 -0.0000 -8.6793 -21.7467 10.5854 -4.1910 7.1250 -0.0000 -0.0000 3.7498 -18.6175 2.3615
-2.2254 17.1782 -11.1902 -11.8908 69.0761 -9.9317 0.0000 0.0000 0.0000 -15.1127 -0.6593 -7.8942 3.2149 11.0350 32.3981 1.2668 -6.2019 -20.1319 0.0154 -0.8000 -2.1988 0.0000 0.0000 0.0000 26.6128 -1.4565 -9.8203 -3.3322 -11.2143 33.0062 -1.6400 8.7594 -22.9423 -0.1423 -2.4315 6.6998 0.4566 -3.1639 3.3906 4.5177 -4.1152 1.4786 4.5319 -2.0500 -0.0753 -8.6187 -1.7094 -10.3726 1.7309 0.2138 37.2916 2.3812 -0.5110 14.6576 -0.0000 -0.0000 0.0000 -89.7420 6.5805 18.1455 18.8969 -29.2904 -4.9803 -0.0000 0.0000 -9.4141 22.5093 23.1587 9.2565 -7.1250 0.0000 -0.0000 -7.0425 54.6873 -1.6821 -0.0000 -0.0000 0.0000 84.7797 0.3025 13.2730 -14.1004 22.8780 -2.8670 0.0000 -0.0000 -8.7788 -21.7193 10.5164 -4.1583 7.1250 -0.0000 -0.0000 3.7673 -18.6934 2.3662
